<?xml version="1.0" standalone="no"?><svg xmlns="http://www.w3.org/2000/svg" viewBox="0 0 1440 320"><path fill="#1565c0" fill-opacity="1" d="M0,96L26.7,128C53.3,160,107,224,160,224C213.3,224,267,160,320,122.7C373.3,85,427,75,480,85.3C533.3,96,587,128,640,144C693.3,160,747,160,800,154.7C853.3,149,907,139,960,122.7C1013.3,107,1067,85,1120,69.3C1173.3,53,1227,43,1280,69.3C1333.3,96,1387,160,1413,192L1440,224L1440,0L1413.3,0C1386.7,0,1333,0,1280,0C1226.7,0,1173,0,1120,0C1066.7,0,1013,0,960,0C906.7,0,853,0,800,0C746.7,0,693,0,640,0C586.7,0,533,0,480,0C426.7,0,373,0,320,0C266.7,0,213,0,160,0C106.7,0,53,0,27,0L0,0Z"></path></svg>
